<svg width="20" height="20" viewBox="0 0 20 20" fill="none" xmlns="http://www.w3.org/2000/svg">
<circle cx="10" cy="10" r="10" fill="#D9D9D9"/>
<path d="M5.47506 9.474C5.66706 9.434 5.85106 9.406 6.02706 9.39C6.20306 9.37 6.37306 9.36 6.53706 9.36C6.99306 9.36 7.39506 9.428 7.74306 9.564C8.09106 9.7 8.38306 9.888 8.61906 10.128C8.85506 10.368 9.03306 10.65 9.15306 10.974C9.27306 11.294 9.33306 11.64 9.33306 12.012C9.33306 12.472 9.25106 12.892 9.08706 13.272C8.92706 13.652 8.70306 13.978 8.41506 14.25C8.12706 14.518 7.78506 14.726 7.38906 14.874C6.99706 15.022 6.56906 15.096 6.10506 15.096C5.83306 15.096 5.57506 15.068 5.33106 15.012C5.08706 14.956 4.85706 14.882 4.64106 14.79C4.42906 14.694 4.23106 14.586 4.04706 14.466C3.86706 14.342 3.70506 14.212 3.56106 14.076L4.01706 13.446C4.11306 13.31 4.23906 13.242 4.39506 13.242C4.49506 13.242 4.59706 13.274 4.70106 13.338C4.80506 13.402 4.92306 13.472 5.05506 13.548C5.19106 13.624 5.34906 13.694 5.52906 13.758C5.71306 13.822 5.93306 13.854 6.18906 13.854C6.46106 13.854 6.70106 13.81 6.90906 13.722C7.11706 13.634 7.28906 13.512 7.42506 13.356C7.56506 13.196 7.66906 13.008 7.73706 12.792C7.80906 12.572 7.84506 12.334 7.84506 12.078C7.84506 11.606 7.70706 11.238 7.43106 10.974C7.15906 10.706 6.75506 10.572 6.21906 10.572C5.80706 10.572 5.38506 10.648 4.95306 10.8L4.02906 10.536L4.74906 6.324H9.03306V6.954C9.03306 7.166 8.96706 7.338 8.83506 7.47C8.70306 7.602 8.47906 7.668 8.16306 7.668H5.78106L5.47506 9.474ZM15.886 13.62C16.046 13.62 16.172 13.666 16.264 13.758C16.36 13.846 16.408 13.964 16.408 14.112V15H10.456V14.508C10.456 14.408 10.476 14.304 10.516 14.196C10.56 14.084 10.628 13.984 10.72 13.896L13.354 11.256C13.574 11.032 13.77 10.818 13.942 10.614C14.118 10.41 14.264 10.208 14.38 10.008C14.496 9.808 14.584 9.606 14.644 9.402C14.708 9.194 14.74 8.976 14.74 8.748C14.74 8.54 14.71 8.358 14.65 8.202C14.59 8.042 14.504 7.908 14.392 7.8C14.284 7.692 14.152 7.612 13.996 7.56C13.844 7.504 13.672 7.476 13.48 7.476C13.304 7.476 13.14 7.502 12.988 7.554C12.84 7.602 12.708 7.672 12.592 7.764C12.476 7.852 12.378 7.956 12.298 8.076C12.218 8.196 12.158 8.328 12.118 8.472C12.05 8.656 11.962 8.778 11.854 8.838C11.746 8.898 11.59 8.912 11.386 8.88L10.606 8.742C10.666 8.326 10.782 7.962 10.954 7.65C11.126 7.334 11.34 7.072 11.596 6.864C11.856 6.652 12.152 6.494 12.484 6.39C12.82 6.282 13.18 6.228 13.564 6.228C13.964 6.228 14.33 6.288 14.662 6.408C14.994 6.524 15.278 6.69 15.514 6.906C15.75 7.122 15.934 7.382 16.066 7.686C16.198 7.99 16.264 8.328 16.264 8.7C16.264 9.02 16.216 9.316 16.12 9.588C16.028 9.86 15.902 10.12 15.742 10.368C15.586 10.616 15.402 10.856 15.19 11.088C14.978 11.32 14.756 11.556 14.524 11.796L12.568 13.794C12.756 13.738 12.942 13.696 13.126 13.668C13.314 13.636 13.492 13.62 13.66 13.62H15.886Z" fill="#3A3A3A"/>
</svg>
