<svg width="48" height="48" viewBox="0 0 48 48" fill="none" xmlns="http://www.w3.org/2000/svg">
<rect width="48" height="48" fill="white"/>
<path d="M31.3333 19.2013C31.3333 17.2914 30.5607 15.4597 29.1855 14.1092C27.8102 12.7587 25.9449 12 24 12C22.0551 12 20.1898 12.7587 18.8146 14.1092C17.4393 15.4597 16.6667 17.2914 16.6667 19.2013C16.6667 27.6028 13 30.0032 13 30.0032H35C35 30.0032 31.3333 27.6028 31.3333 19.2013Z" stroke="#F64E5B" stroke-width="1.7" stroke-linecap="round" stroke-linejoin="round"/>
<path d="M25.8773 34.8047C25.6663 35.1684 25.3635 35.4704 24.9991 35.6803C24.6347 35.8902 24.2215 36.0006 23.801 36.0006C23.3804 36.0006 22.9673 35.8902 22.6029 35.6803C22.2385 35.4704 21.9356 35.1684 21.7246 34.8047" stroke="#F64E5B" stroke-width="2" stroke-linecap="round" stroke-linejoin="round"/>
</svg>
