<svg width="18" height="20" viewBox="0 0 18 20" fill="none" xmlns="http://www.w3.org/2000/svg">
<path d="M5.79883 9.49902H12.1988" stroke="#F57078" stroke-width="2" stroke-linecap="round" stroke-linejoin="round"/>
<path d="M5.79883 12.334H12.1988" stroke="#F57078" stroke-width="2" stroke-linecap="round" stroke-linejoin="round"/>
<path d="M-nan -nanL1.8 2H16.2C16.4122 2 16.6157 2.07463 16.7657 2.20747C16.9157 2.34032 17 2.52049 17 2.70836V16.1672C17 16.7308 16.7471 17.2713 16.2971 17.6698C15.847 18.0684 15.2365 18.2922 14.6 18.2922H3.4C2.76348 18.2922 2.15303 18.0684 1.70294 17.6698C1.25286 17.2713 1 16.7308 1 16.1672V2.70836C1 2.52049 1.08429 2.34032 1.23431 2.20747C1.38434 2.07463 1.58783 2 1.8 2L-nan -nanL-nan -nanZ" stroke="#F57078" stroke-width="2" stroke-linecap="round" stroke-linejoin="round"/>
<path d="M4.20117 1V3.83343" stroke="#F57078" stroke-width="2" stroke-linecap="round" stroke-linejoin="round"/>
<path d="M9 1V3.83343" stroke="#F57078" stroke-width="2" stroke-linecap="round" stroke-linejoin="round"/>
<path d="M13.7988 1V3.83343" stroke="#F57078" stroke-width="2" stroke-linecap="round" stroke-linejoin="round"/>
</svg>
