<svg width="115" height="115" viewBox="0 0 115 115" fill="none" xmlns="http://www.w3.org/2000/svg">
<path d="M45.0703 55.3477C45.8646 55.3477 46.6035 55.5267 47.2871 55.8848C47.9772 56.2363 48.5339 56.7507 48.957 57.4277C49.3867 58.0983 49.6016 58.86 49.6016 59.7129C49.6016 61.028 49.1523 62.112 48.2539 62.9648C47.362 63.8112 46.2259 64.2344 44.8457 64.2344C43.4525 64.2344 42.3066 63.8112 41.4082 62.9648C40.5163 62.1185 40.0703 61.0345 40.0703 59.7129C40.0703 58.4824 40.5553 57.0078 41.5254 55.2891L44.1914 50.5723H46.0078C44.4323 53.3717 43.472 55.11 43.127 55.7871C43.752 55.4941 44.3997 55.3477 45.0703 55.3477ZM42.6094 61.8223C43.1953 62.3822 43.9375 62.6621 44.8359 62.6621C45.7344 62.6621 46.4733 62.3854 47.0527 61.832C47.6387 61.2721 47.9316 60.5658 47.9316 59.7129C47.9316 58.847 47.6387 58.1374 47.0527 57.584C46.4733 57.0306 45.7344 56.7539 44.8359 56.7539C43.9375 56.7539 43.1953 57.0339 42.6094 57.5938C42.0234 58.1536 41.7305 58.86 41.7305 59.7129C41.7305 60.5592 42.0234 61.2624 42.6094 61.8223ZM55.3047 55.5918C56.6263 55.5918 57.7168 56.0052 58.5762 56.832C59.4421 57.6523 59.875 58.6745 59.875 59.8984C59.875 61.1484 59.4518 62.1836 58.6055 63.0039C57.7591 63.8242 56.7077 64.2344 55.4512 64.2344C54.2077 64.2344 53.1725 63.847 52.3457 63.0723C51.5189 62.2975 51.0827 61.3112 51.0371 60.1133H52.668C52.7135 60.8685 52.9935 61.4837 53.5078 61.959C54.0286 62.4277 54.6764 62.6621 55.4512 62.6621C56.2454 62.6621 56.903 62.4017 57.4238 61.8809C57.9512 61.36 58.2148 60.6992 58.2148 59.8984C58.2148 59.0911 57.9316 58.4206 57.3652 57.8867C56.7988 57.3464 56.0924 57.0762 55.2461 57.0762H51.8672L51.6328 56.8125L52.3066 50.6992H58.9668V52.2129H53.6738L53.3027 55.5918H55.3047ZM64.5527 55.9824C63.6087 55.9824 62.8372 55.6862 62.2383 55.0938C61.6393 54.5013 61.3398 53.7396 61.3398 52.8086C61.3398 51.8841 61.6393 51.1289 62.2383 50.543C62.8372 49.9505 63.6087 49.6543 64.5527 49.6543C65.4902 49.6543 66.2552 49.9505 66.8477 50.543C67.4466 51.1289 67.7461 51.8841 67.7461 52.8086C67.7461 53.7396 67.4466 54.5013 66.8477 55.0938C66.2487 55.6862 65.4837 55.9824 64.5527 55.9824ZM63.5176 64.0781L72.0137 49.9766H73.8105L65.3145 64.0781H63.5176ZM63.2734 54.1074C63.612 54.446 64.0384 54.6152 64.5527 54.6152C65.0671 54.6152 65.4902 54.446 65.8223 54.1074C66.1608 53.7624 66.3301 53.3294 66.3301 52.8086C66.3301 52.2878 66.1608 51.8613 65.8223 51.5293C65.4902 51.1973 65.0671 51.0312 64.5527 51.0312C64.0319 51.0312 63.6022 51.2005 63.2637 51.5391C62.9316 51.8711 62.7656 52.2943 62.7656 52.8086C62.7656 53.3294 62.9349 53.7624 63.2734 54.1074ZM73.0781 64.1074C72.1406 64.1074 71.3724 63.8145 70.7734 63.2285C70.181 62.6426 69.8848 61.8906 69.8848 60.9727C69.8848 60.0547 70.181 59.3027 70.7734 58.7168C71.3724 58.1309 72.1406 57.8379 73.0781 57.8379C74.0091 57.8379 74.7708 58.1309 75.3633 58.7168C75.9622 59.2962 76.2617 60.0482 76.2617 60.9727C76.2617 61.8971 75.9622 62.6523 75.3633 63.2383C74.7708 63.8177 74.0091 64.1074 73.0781 64.1074ZM71.8086 62.2422C72.1406 62.5677 72.5638 62.7305 73.0781 62.7305C73.5924 62.7305 74.0124 62.5677 74.3379 62.2422C74.6699 61.9102 74.8359 61.487 74.8359 60.9727C74.8359 60.4583 74.6699 60.0352 74.3379 59.7031C74.0124 59.3711 73.5924 59.2051 73.0781 59.2051C72.5638 59.2051 72.1406 59.3711 71.8086 59.7031C71.4766 60.0352 71.3105 60.4583 71.3105 60.9727C71.3105 61.487 71.4766 61.9102 71.8086 62.2422Z" fill="#7087F8"/>
<path d="M115 57.5C115 89.2564 89.2564 115 57.5 115C25.7436 115 0 89.2564 0 57.5C0 25.7436 25.7436 0 57.5 0C89.2564 0 115 25.7436 115 57.5ZM11.0284 57.5C11.0284 83.1656 31.8344 103.972 57.5 103.972C83.1656 103.972 103.972 83.1656 103.972 57.5C103.972 31.8344 83.1656 11.0284 57.5 11.0284C31.8344 11.0284 11.0284 31.8344 11.0284 57.5Z" fill="#F6F6F6"/>
<path d="M57.5 5.50345C57.5 2.46398 59.9696 -0.0273032 62.9951 0.263163C70.8251 1.01489 78.4382 3.36746 85.3537 7.19673C93.8785 11.9171 101.064 18.7264 106.235 26.9854C111.406 35.2445 114.394 44.6822 114.917 54.4126C115.44 64.1429 113.482 73.8466 109.226 82.6126C104.971 91.3785 98.5568 98.9191 90.5873 104.526C82.6179 110.134 73.3541 113.624 63.6659 114.668C53.9777 115.713 44.1829 114.279 35.201 110.5C27.9147 107.434 21.3573 102.907 15.9237 97.2198C13.8241 95.022 14.2542 91.5406 16.6425 89.6607C19.0309 87.7807 22.4699 88.2203 24.6187 90.3699C28.8635 94.6161 33.9035 98.0127 39.4696 100.355C46.7321 103.41 54.652 104.57 62.4856 103.725C70.3193 102.88 77.8097 100.058 84.2536 95.5244C90.6975 90.9905 95.8835 84.8934 99.3246 77.8054C102.766 70.7175 104.349 62.8713 103.926 55.0036C103.503 47.1359 101.087 39.5047 96.906 32.8267C92.7247 26.1486 86.9148 20.6427 80.0219 16.826C74.739 13.9008 68.9527 12.0413 62.9907 11.3322C59.9725 10.9733 57.5 8.54292 57.5 5.50345Z" fill="url(#paint0_linear_3005_17743)"/>
<defs>
<linearGradient id="paint0_linear_3005_17743" x1="131.942" y1="66.7411" x2="-9.03413e-06" y2="69.8214" gradientUnits="userSpaceOnUse">
<stop offset="0.242429" stop-color="#4F6CF9"/>
<stop offset="0.9999" stop-color="#D4DAF6"/>
</linearGradient>
</defs>
</svg>
