<svg width="115" height="115" viewBox="0 0 115 115" fill="none" xmlns="http://www.w3.org/2000/svg">
<path d="M39.6094 50.6992H48.6035V50.9922L43.3691 64H41.6113L46.3867 52.2129H39.6094V50.6992ZM55.0781 55.7285C56.1784 55.8717 57.0671 56.3307 57.7441 57.1055C58.4212 57.8737 58.7598 58.8047 58.7598 59.8984C58.7598 61.1549 58.3333 62.1934 57.4805 63.0137C56.6276 63.8275 55.5632 64.2344 54.2871 64.2344C53.0566 64.2344 52.0345 63.8503 51.2207 63.082C50.4134 62.3138 49.9772 61.3242 49.9121 60.1133H51.543C51.5951 60.8815 51.8717 61.5 52.373 61.9688C52.8809 62.431 53.5189 62.6621 54.2871 62.6621C55.1009 62.6621 55.7715 62.3984 56.2988 61.8711C56.8262 61.3372 57.0898 60.6602 57.0898 59.8398C57.0898 59.026 56.8066 58.3555 56.2402 57.8281C55.6738 57.3008 54.9544 57.0371 54.082 57.0371H52.5977V56.7148L55.6738 52.2129H50.3418V50.6992H58.2422V51.0801L55.0781 55.7285ZM63.5742 55.9824C62.6302 55.9824 61.8587 55.6862 61.2598 55.0938C60.6608 54.5013 60.3613 53.7396 60.3613 52.8086C60.3613 51.8841 60.6608 51.1289 61.2598 50.543C61.8587 49.9505 62.6302 49.6543 63.5742 49.6543C64.5117 49.6543 65.2767 49.9505 65.8691 50.543C66.4681 51.1289 66.7676 51.8841 66.7676 52.8086C66.7676 53.7396 66.4681 54.5013 65.8691 55.0938C65.2702 55.6862 64.5052 55.9824 63.5742 55.9824ZM62.5391 64.0781L71.0352 49.9766H72.832L64.3359 64.0781H62.5391ZM62.2949 54.1074C62.6335 54.446 63.0599 54.6152 63.5742 54.6152C64.0885 54.6152 64.5117 54.446 64.8438 54.1074C65.1823 53.7624 65.3516 53.3294 65.3516 52.8086C65.3516 52.2878 65.1823 51.8613 64.8438 51.5293C64.5117 51.1973 64.0885 51.0312 63.5742 51.0312C63.0534 51.0312 62.6237 51.2005 62.2852 51.5391C61.9531 51.8711 61.7871 52.2943 61.7871 52.8086C61.7871 53.3294 61.9564 53.7624 62.2949 54.1074ZM72.0996 64.1074C71.1621 64.1074 70.3939 63.8145 69.7949 63.2285C69.2025 62.6426 68.9062 61.8906 68.9062 60.9727C68.9062 60.0547 69.2025 59.3027 69.7949 58.7168C70.3939 58.1309 71.1621 57.8379 72.0996 57.8379C73.0306 57.8379 73.7923 58.1309 74.3848 58.7168C74.9837 59.2962 75.2832 60.0482 75.2832 60.9727C75.2832 61.8971 74.9837 62.6523 74.3848 63.2383C73.7923 63.8177 73.0306 64.1074 72.0996 64.1074ZM70.8301 62.2422C71.1621 62.5677 71.5853 62.7305 72.0996 62.7305C72.6139 62.7305 73.0339 62.5677 73.3594 62.2422C73.6914 61.9102 73.8574 61.487 73.8574 60.9727C73.8574 60.4583 73.6914 60.0352 73.3594 59.7031C73.0339 59.3711 72.6139 59.2051 72.0996 59.2051C71.5853 59.2051 71.1621 59.3711 70.8301 59.7031C70.498 60.0352 70.332 60.4583 70.332 60.9727C70.332 61.487 70.498 61.9102 70.8301 62.2422Z" fill="#7087F8"/>
<path d="M115 57.5C115 89.2564 89.2564 115 57.5 115C25.7436 115 0 89.2564 0 57.5C0 25.7436 25.7436 0 57.5 0C89.2564 0 115 25.7436 115 57.5ZM11.0284 57.5C11.0284 83.1656 31.8344 103.972 57.5 103.972C83.1656 103.972 103.972 83.1656 103.972 57.5C103.972 31.8344 83.1656 11.0284 57.5 11.0284C31.8344 11.0284 11.0284 31.8344 11.0284 57.5Z" fill="#F6F6F6"/>
<path d="M57.5 5.50345C57.5 2.46398 59.9696 -0.0273185 62.9952 0.26314C72.6203 1.18718 81.8891 4.52769 89.9235 10.0135C99.4778 16.5371 106.842 25.7912 111.054 36.5663C115.266 47.3415 116.129 59.1365 113.532 70.4102C110.934 81.6839 104.996 91.9119 96.4942 99.7576C87.9919 107.603 77.3207 112.702 65.875 114.387C54.4292 116.072 42.7414 114.265 32.3388 109.203C21.9361 104.14 13.3025 96.0574 7.56612 86.0107C2.74233 77.5622 0.155928 68.0554 0.00679532 58.3871C-0.0400798 55.348 2.64125 53.0862 5.67093 53.3299C8.70061 53.5737 10.9248 56.2332 11.0406 59.2705C11.3246 66.7241 13.3996 74.0288 17.1247 80.553C21.763 88.6766 28.7439 95.2121 37.1552 99.3055C45.5666 103.399 55.0171 104.86 64.2718 103.497C73.5265 102.135 82.155 98.0123 89.0297 91.6685C95.9045 85.3246 100.706 77.0545 102.806 67.9389C104.906 58.8233 104.208 49.286 100.802 40.5735C97.3968 31.861 91.4422 24.3784 83.7168 19.1036C77.5124 14.8672 70.3975 12.2131 62.9908 11.3322C59.9726 10.9733 57.5 8.54292 57.5 5.50345Z" fill="url(#paint0_linear_2684_11407)"/>
<defs>
<linearGradient id="paint0_linear_2684_11407" x1="131.942" y1="66.7411" x2="-9.03413e-06" y2="69.8214" gradientUnits="userSpaceOnUse">
<stop offset="0.508057" stop-color="#4F6CF9"/>
<stop offset="0.9999" stop-color="#D4DAF6"/>
</linearGradient>
</defs>
</svg>
