<svg width="115" height="115" viewBox="0 0 115 115" fill="none" xmlns="http://www.w3.org/2000/svg">
<path d="M49.5723 59.7324V61.1875H48.1758V64H46.5645V61.1875H39.7578V60.8066L44.4355 50.6895H46.1543L41.9844 59.7324H46.584L46.8574 55.6211H48.1758V59.7324H49.5723ZM60.3535 59.7324V61.1875H58.957V64H57.3457V61.1875H50.5391V60.8066L55.2168 50.6895H56.9355L52.7656 59.7324H57.3652L57.6387 55.6211H58.957V59.7324H60.3535ZM64.3184 55.9824C63.3743 55.9824 62.6029 55.6862 62.0039 55.0938C61.4049 54.5013 61.1055 53.7396 61.1055 52.8086C61.1055 51.8841 61.4049 51.1289 62.0039 50.543C62.6029 49.9505 63.3743 49.6543 64.3184 49.6543C65.2559 49.6543 66.0208 49.9505 66.6133 50.543C67.2122 51.1289 67.5117 51.8841 67.5117 52.8086C67.5117 53.7396 67.2122 54.5013 66.6133 55.0938C66.0143 55.6862 65.2493 55.9824 64.3184 55.9824ZM63.2832 64.0781L71.7793 49.9766H73.5762L65.0801 64.0781H63.2832ZM63.0391 54.1074C63.3776 54.446 63.804 54.6152 64.3184 54.6152C64.8327 54.6152 65.2559 54.446 65.5879 54.1074C65.9264 53.7624 66.0957 53.3294 66.0957 52.8086C66.0957 52.2878 65.9264 51.8613 65.5879 51.5293C65.2559 51.1973 64.8327 51.0312 64.3184 51.0312C63.7975 51.0312 63.3678 51.2005 63.0293 51.5391C62.6973 51.8711 62.5312 52.2943 62.5312 52.8086C62.5312 53.3294 62.7005 53.7624 63.0391 54.1074ZM72.8438 64.1074C71.9062 64.1074 71.138 63.8145 70.5391 63.2285C69.9466 62.6426 69.6504 61.8906 69.6504 60.9727C69.6504 60.0547 69.9466 59.3027 70.5391 58.7168C71.138 58.1309 71.9062 57.8379 72.8438 57.8379C73.7747 57.8379 74.5365 58.1309 75.1289 58.7168C75.7279 59.2962 76.0273 60.0482 76.0273 60.9727C76.0273 61.8971 75.7279 62.6523 75.1289 63.2383C74.5365 63.8177 73.7747 64.1074 72.8438 64.1074ZM71.5742 62.2422C71.9062 62.5677 72.3294 62.7305 72.8438 62.7305C73.3581 62.7305 73.778 62.5677 74.1035 62.2422C74.4355 61.9102 74.6016 61.487 74.6016 60.9727C74.6016 60.4583 74.4355 60.0352 74.1035 59.7031C73.778 59.3711 73.3581 59.2051 72.8438 59.2051C72.3294 59.2051 71.9062 59.3711 71.5742 59.7031C71.2422 60.0352 71.0762 60.4583 71.0762 60.9727C71.0762 61.487 71.2422 61.9102 71.5742 62.2422Z" fill="#7087F8"/>
<path d="M115 57.5C115 89.2564 89.2564 115 57.5 115C25.7436 115 0 89.2564 0 57.5C0 25.7436 25.7436 0 57.5 0C89.2564 0 115 25.7436 115 57.5ZM11.0284 57.5C11.0284 83.1656 31.8344 103.972 57.5 103.972C83.1656 103.972 103.972 83.1656 103.972 57.5C103.972 31.8344 83.1656 11.0284 57.5 11.0284C31.8344 11.0284 11.0284 31.8344 11.0284 57.5Z" fill="#F6F6F6"/>
<path d="M57.5 5.50345C57.5 2.46398 59.9695 -0.0273032 62.9951 0.263171C69.6413 0.901255 76.1401 2.69351 82.195 5.57307C89.9104 9.2423 96.7112 14.5847 102.103 21.2119C107.495 27.8391 111.342 35.5846 113.365 43.8851C115.388 52.1856 115.536 60.8326 113.798 69.1975C112.06 77.5623 108.479 85.4347 103.317 92.2423C98.1552 99.0499 91.541 104.622 83.9555 108.553C76.37 112.483 68.0039 114.674 59.4654 114.966C52.7645 115.196 46.0897 114.251 39.7394 112.188C36.8486 111.249 35.5759 107.981 36.7867 105.193C37.9975 102.405 41.2335 101.161 44.1448 102.034C48.9764 103.483 54.0236 104.139 59.0892 103.966C65.9932 103.73 72.7578 101.958 78.8912 98.7798C85.0247 95.6015 90.3728 91.0963 94.5467 85.5918C98.7207 80.0873 101.616 73.7219 103.021 66.9583C104.426 60.1947 104.307 53.2029 102.671 46.4913C101.035 39.7797 97.9245 33.517 93.5649 28.1584C89.2052 22.7998 83.7063 18.48 77.4678 15.5131C72.8905 13.3363 67.9995 11.9279 62.9907 11.3322C59.9725 10.9733 57.5 8.54292 57.5 5.50345Z" fill="url(#paint0_linear_3005_17753)"/>
<defs>
<linearGradient id="paint0_linear_3005_17753" x1="131.942" y1="66.7411" x2="-9.03413e-06" y2="69.8214" gradientUnits="userSpaceOnUse">
<stop offset="0.242429" stop-color="#4F6CF9"/>
<stop offset="0.9999" stop-color="#D4DAF6"/>
</linearGradient>
</defs>
</svg>
