<svg width="48" height="68" viewBox="0 0 48 68" fill="none" xmlns="http://www.w3.org/2000/svg">
<rect width="48" height="48" fill="#FBFBFB"/>
<path d="M31.3333 19.2013C31.3333 17.2914 30.5607 15.4597 29.1854 14.1092C27.8102 12.7587 25.9449 12 24 12C22.0551 12 20.1898 12.7587 18.8146 14.1092C17.4393 15.4597 16.6667 17.2914 16.6667 19.2013C16.6667 27.6028 13 30.0032 13 30.0032H35C35 30.0032 31.3333 27.6028 31.3333 19.2013Z" fill="#F57078" stroke="#F57078" stroke-width="2.5" stroke-linecap="round" stroke-linejoin="round"/>
<path d="M25.8773 34.8037C25.6663 35.1675 25.3635 35.4694 24.9991 35.6793C24.6347 35.8892 24.2215 35.9997 23.801 35.9997C23.3804 35.9997 22.9673 35.8892 22.6029 35.6793C22.2385 35.4694 21.9356 35.1675 21.7246 34.8037" fill="white"/>
<path d="M25.8773 34.8037C25.6663 35.1675 25.3635 35.4694 24.9991 35.6793C24.6347 35.8892 24.2215 35.9997 23.801 35.9997C23.3804 35.9997 22.9673 35.8892 22.6029 35.6793C22.2385 35.4694 21.9356 35.1675 21.7246 34.8037" stroke="#F57078" stroke-width="2.5" stroke-linecap="round" stroke-linejoin="round"/>
<path d="M21.768 56C22.5377 54.6667 22.9226 54 23.5 54C24.0774 54 24.4623 54.6667 25.2321 56L28.2631 61.25C29.0329 62.5833 29.4178 63.25 29.1292 63.75C28.8405 64.25 28.0707 64.25 26.5311 64.25H20.4689C18.9293 64.25 18.1595 64.25 17.8708 63.75C17.5822 63.25 17.9671 62.5833 18.7369 61.25L21.768 56Z" fill="#F57078"/>
</svg>
