<svg width="35" height="34" viewBox="0 0 35 34" fill="none" xmlns="http://www.w3.org/2000/svg">
<path d="M17.5 1C26.6094 1 34 8.16667 34 17C34 25.8333 26.6094 33 17.5 33C8.39062 33 1 25.8333 1 17C1 8.16667 8.39062 1 17.5 1Z" fill="white"/>
<path d="M24.6889 11L15.107 22.2L11 18" fill="white"/>
<path d="M24.6889 11L15.107 22.2L11 18M34 17C34 8.16667 26.6094 1 17.5 1C8.39062 1 1 8.16667 1 17C1 25.8333 8.39062 33 17.5 33C26.6094 33 34 25.8333 34 17Z" stroke="#F54F59" stroke-width="2" stroke-linecap="round" stroke-linejoin="round"/>
</svg>
