<svg width="28" height="24" viewBox="0 0 28 24" fill="none" xmlns="http://www.w3.org/2000/svg">
<path d="M13.9999 5C13.9999 3.93913 14.4213 2.92172 15.1715 2.17157C15.9216 1.42143 16.939 1 17.9999 1H25.9999C26.2651 1 26.5195 1.10536 26.707 1.29289C26.8946 1.48043 26.9999 1.73478 26.9999 2V18C26.9999 18.2652 26.8946 18.5196 26.707 18.7071C26.5195 18.8946 26.2651 19 25.9999 19H17.9999C16.939 19 15.9216 19.4214 15.1715 20.1716C14.4213 20.9217 13.9999 21.9391 13.9999 23" fill="#F54F59"/>
<path d="M1 18C1 18.2652 1.10536 18.5196 1.29289 18.7071C1.48043 18.8946 1.73478 19 2 19H10C11.0609 19 12.0783 19.4214 12.8284 20.1716C13.5786 20.9217 13.9999 21.9391 13.9999 23V5C13.9999 3.93913 13.5786 2.92172 12.8284 2.17157C12.0783 1.42143 11.0609 1 10 1H2C1.73478 1 1.48043 1.10536 1.29289 1.29289C1.10536 1.48043 1 1.73478 1 2V18Z" fill="#F54F59"/>
<path d="M13.9999 5C13.9999 3.93913 14.4213 2.92172 15.1715 2.17157C15.9216 1.42143 16.9391 1 17.9999 1H25.9999C26.2651 1 26.5195 1.10536 26.707 1.29289C26.8946 1.48043 26.9999 1.73478 26.9999 2V18C26.9999 18.2652 26.8946 18.5196 26.707 18.7071C26.5195 18.8946 26.2651 19 25.9999 19H17.9999C16.9391 19 15.9216 19.4214 15.1715 20.1716C14.4213 20.9217 13.9999 21.9391 13.9999 23M13.9999 5V23M13.9999 5C13.9999 3.93913 13.5786 2.92172 12.8284 2.17157C12.0783 1.42143 11.0609 1 10 1H2C1.73478 1 1.48043 1.10536 1.29289 1.29289C1.10536 1.48043 1 1.73478 1 2V18C1 18.2652 1.10536 18.5196 1.29289 18.7071C1.48043 18.8946 1.73478 19 2 19H10C11.0609 19 12.0783 19.4214 12.8284 20.1716C13.5786 20.9217 13.9999 21.9391 13.9999 23" stroke="#F54F59" stroke-width="2" stroke-linecap="round" stroke-linejoin="round"/>
<path d="M10 13H5M23 13H18M23 8H18M10 8H5" stroke="white" stroke-width="2" stroke-linecap="round"/>
</svg>
