<svg width="48" height="48" viewBox="0 0 48 48" fill="none" xmlns="http://www.w3.org/2000/svg">
<rect width="48" height="48" fill="#FBFBFB"/>
<path d="M12.4444 32C12.0352 32 11.6924 31.872 11.416 31.616C11.1387 31.3609 11 31.0444 11 30.6667C11 30.2889 11.1387 29.9724 11.416 29.7173C11.6924 29.4613 12.0352 29.3333 12.4444 29.3333H35.5556C35.9648 29.3333 36.3076 29.4613 36.584 29.7173C36.8613 29.9724 37 30.2889 37 30.6667C37 31.0444 36.8613 31.3609 36.584 31.616C36.3076 31.872 35.9648 32 35.5556 32H12.4444ZM12.4444 25.3333C12.0352 25.3333 11.6924 25.2053 11.416 24.9493C11.1387 24.6942 11 24.3778 11 24C11 23.6222 11.1387 23.3053 11.416 23.0493C11.6924 22.7942 12.0352 22.6667 12.4444 22.6667H35.5556C35.9648 22.6667 36.3076 22.7942 36.584 23.0493C36.8613 23.3053 37 23.6222 37 24C37 24.3778 36.8613 24.6942 36.584 24.9493C36.3076 25.2053 35.9648 25.3333 35.5556 25.3333H12.4444ZM12.4444 18.6667C12.0352 18.6667 11.6924 18.5391 11.416 18.284C11.1387 18.028 11 17.7111 11 17.3333C11 16.9556 11.1387 16.6387 11.416 16.3827C11.6924 16.1276 12.0352 16 12.4444 16H35.5556C35.9648 16 36.3076 16.1276 36.584 16.3827C36.8613 16.6387 37 16.9556 37 17.3333C37 17.7111 36.8613 18.028 36.584 18.284C36.3076 18.5391 35.9648 18.6667 35.5556 18.6667H12.4444Z" fill="#252525"/>
</svg>
