<svg width="28" height="33" viewBox="0 0 28 33" fill="none" xmlns="http://www.w3.org/2000/svg">
<g clip-path="url(#clip0_3843_23275)">
<path d="M10.1978 14.0867C9.53627 14.0867 8.98308 13.5442 9.11878 12.8967C9.34538 11.8154 9.89604 10.8865 10.7707 10.1098C11.6041 9.36994 12.7152 9 14.1041 9C15.6318 9 16.8124 9.36994 17.6457 10.1098C18.5485 10.9114 18.9999 11.9287 18.9999 13.1618C18.9999 14.21 18.5832 15.104 17.7499 15.8439C17.2638 16.2755 16.6041 16.8613 15.7707 17.6012C15.3351 17.988 15.0512 18.5096 14.9193 19.1661C14.8172 19.6737 14.4135 20.0983 13.8957 20.0983C13.378 20.0983 12.9505 19.6772 13.002 19.162C13.092 18.2635 13.3204 17.5582 13.6874 17.0462C14.0346 16.553 14.6943 15.8748 15.6666 15.0116C16.2221 14.5183 16.4999 13.9326 16.4999 13.2543C16.4999 12.3911 16.2568 11.7437 15.7707 11.3121C15.3541 10.9422 14.7638 10.7572 13.9999 10.7572C13.3749 10.7572 12.8541 10.9422 12.4374 11.3121C11.9876 11.7115 11.6834 12.2403 11.525 12.8984C11.3701 13.5416 10.8594 14.0867 10.1978 14.0867ZM12.7499 23.8902C12.7499 23.2772 13.2468 22.7803 13.8597 22.7803H13.9317C14.5447 22.7803 15.0416 23.2772 15.0416 23.8902C15.0416 24.5031 14.5447 25 13.9317 25H13.8597C13.2468 25 12.7499 24.5031 12.7499 23.8902Z" fill="#252525" stroke="#252525" stroke-width="0.5"/>
<path d="M20.5135 8.81887H27M27 8.81887V1.7273M27 8.81887L21.5 4C20.0944 3.18966 18.9921 2.64416 17.5498 1.99035C16.1075 1.33653 14.5615 1 13.0001 1C11.4387 1 9.8927 1.33653 8.45041 1.99035C7.00812 2.64416 5.69788 3.60243 4.59463 4.81034M7.48654 23.1812H1M1 23.1812V30.2728M1 23.1812L6.59463 28.1897C7.69788 29.3976 9.00812 30.3558 10.4504 31.0097C11.8927 31.6635 13.4387 32 15.0001 32C16.5615 32 18.1075 31.6635 19.5498 31.0097C20.9921 30.3558 22.3023 29.3976 23.4056 28.1897" stroke="#252525" stroke-width="2" stroke-linecap="round" stroke-linejoin="round"/>
</g>
<defs>
<clipPath id="clip0_3843_23275">
<rect width="28" height="33" fill="white"/>
</clipPath>
</defs>
</svg>
