<svg width="28" height="33" viewBox="0 0 28 33" fill="none" xmlns="http://www.w3.org/2000/svg">
<path d="M10.1979 14.0867C9.53633 14.0867 8.98314 13.5442 9.11884 12.8967C9.34544 11.8154 9.8961 10.8865 10.7708 10.1098C11.6042 9.36994 12.7153 9 14.1042 9C15.6319 9 16.8125 9.36994 17.6458 10.1098C18.5486 10.9114 19 11.9287 19 13.1618C19 14.21 18.5833 15.104 17.75 15.8439C17.2639 16.2755 16.6042 16.8613 15.7708 17.6012C15.3352 17.988 15.0513 18.5096 14.9194 19.1661C14.8173 19.6737 14.4136 20.0983 13.8958 20.0983C13.3781 20.0983 12.9506 19.6772 13.0021 19.162C13.0921 18.2635 13.3205 17.5582 13.6875 17.0462C14.0347 16.553 14.6944 15.8748 15.6667 15.0116C16.2222 14.5183 16.5 13.9326 16.5 13.2543C16.5 12.3911 16.2569 11.7437 15.7708 11.3121C15.3542 10.9422 14.7639 10.7572 14 10.7572C13.375 10.7572 12.8542 10.9422 12.4375 11.3121C11.9877 11.7115 11.6835 12.2403 11.5251 12.8984C11.3702 13.5416 10.8595 14.0867 10.1979 14.0867ZM12.75 23.8902C12.75 23.2772 13.2469 22.7803 13.8598 22.7803H13.9318C14.5448 22.7803 15.0417 23.2772 15.0417 23.8902C15.0417 24.5031 14.5448 25 13.9318 25H13.8598C13.2469 25 12.75 24.5031 12.75 23.8902Z" fill="#F54F59" stroke="#F54F59" stroke-width="0.5"/>
<path d="M20.5135 8.81887H27M27 8.81887V1.7273M27 8.81887L21.5 4C20.0944 3.18966 18.9921 2.64416 17.5498 1.99035C16.1075 1.33653 14.5615 1 13.0001 1C11.4387 1 9.8927 1.33653 8.45041 1.99035C7.00812 2.64416 5.69788 3.60243 4.59463 4.81034M7.48654 23.1812H1M1 23.1812V30.2728M1 23.1812L6.59463 28.1897C7.69788 29.3976 9.00812 30.3558 10.4504 31.0097C11.8927 31.6635 13.4387 32 15.0001 32C16.5615 32 18.1075 31.6635 19.5498 31.0097C20.9921 30.3558 22.3023 29.3976 23.4056 28.1897" stroke="#F54F59" stroke-width="2" stroke-linecap="round" stroke-linejoin="round"/>
</svg>
