<svg width="60" height="53" viewBox="0 0 60 53" fill="none" xmlns="http://www.w3.org/2000/svg">
<rect width="60" height="53" rx="5" fill="#F54F59"/>
<path d="M25.25 34.7816V38.7566C25.25 39.8109 25.667 40.8219 26.4094 41.5674C27.1517 42.3128 28.1585 42.7316 29.2083 42.7316H45.0417C46.0915 42.7316 47.0983 42.3128 47.8406 41.5674C48.583 40.8219 49 39.8109 49 38.7566V14.9066C49 13.8524 48.583 12.8413 47.8406 12.0959C47.0983 11.3504 46.0915 10.9316 45.0417 10.9316H30C27.814 10.9316 25.25 12.7114 25.25 14.9066V18.8816M18.9167 34.7816L11 26.8316L18.9167 18.8816M37.9167 26.8316C37.9167 26.8316 22.4766 26.8316 12.5833 26.8316" stroke="white" stroke-width="3" stroke-linecap="round" stroke-linejoin="round"/>
</svg>
