<svg width="18" height="18" viewBox="0 0 18 18" fill="none" xmlns="http://www.w3.org/2000/svg">
<circle cx="9" cy="9" r="9" fill="#F54F59"/>
<path d="M7.74945 7.916C7.74945 8.48067 7.89412 8.91233 8.18345 9.211C8.47745 9.505 8.89279 9.652 9.42945 9.652C9.70945 9.652 9.95912 9.60767 10.1785 9.519C10.3978 9.43033 10.5821 9.309 10.7315 9.155C10.8808 9.001 10.9928 8.819 11.0675 8.609C11.1468 8.399 11.1865 8.17267 11.1865 7.93C11.1865 7.65467 11.1445 7.40967 11.0605 7.195C10.9765 6.97567 10.8575 6.79133 10.7035 6.642C10.5495 6.49267 10.3651 6.37833 10.1505 6.299C9.94045 6.21967 9.70945 6.18 9.45745 6.18C9.19612 6.18 8.96045 6.22433 8.75045 6.313C8.54045 6.397 8.36079 6.516 8.21145 6.67C8.06212 6.824 7.94779 7.00833 7.86845 7.223C7.78912 7.433 7.74945 7.664 7.74945 7.916ZM10.0455 11.073C10.1248 10.975 10.1995 10.8793 10.2695 10.786C10.3395 10.6927 10.4071 10.5993 10.4725 10.506C10.2391 10.6553 9.98245 10.7697 9.70245 10.849C9.42245 10.9237 9.12845 10.961 8.82045 10.961C8.47045 10.961 8.12745 10.9003 7.79145 10.779C7.45545 10.6577 7.15679 10.4757 6.89545 10.233C6.63412 9.98567 6.42179 9.68233 6.25845 9.323C6.09979 8.959 6.02045 8.53433 6.02045 8.049C6.02045 7.59633 6.10445 7.17167 6.27245 6.775C6.44045 6.37833 6.67612 6.03067 6.97945 5.732C7.28279 5.43333 7.64679 5.19767 8.07145 5.025C8.49612 4.85233 8.96512 4.766 9.47845 4.766C9.99645 4.766 10.4608 4.84767 10.8715 5.011C11.2868 5.17433 11.6391 5.403 11.9285 5.697C12.2225 5.991 12.4465 6.34333 12.6005 6.754C12.7591 7.16467 12.8385 7.615 12.8385 8.105C12.8385 8.41767 12.8105 8.714 12.7545 8.994C12.7031 9.274 12.6285 9.54467 12.5305 9.806C12.4325 10.0627 12.3135 10.3147 12.1735 10.562C12.0335 10.8093 11.8771 11.0543 11.7045 11.297L9.38745 14.601C9.30812 14.713 9.18912 14.8087 9.03045 14.888C8.87179 14.9627 8.69212 15 8.49145 15H6.90245L10.0455 11.073Z" fill="white"/>
</svg>
