<svg width="18" height="20" viewBox="0 0 18 20" fill="none" xmlns="http://www.w3.org/2000/svg">
<path d="M14.3333 6.23725C14.3333 4.84824 13.7714 3.51613 12.7712 2.53395C11.771 1.55178 10.4145 1 9 1C7.58551 1 6.22896 1.55178 5.22876 2.53395C4.22857 3.51613 3.66667 4.84824 3.66667 6.23725C3.66667 12.3474 1 14.0931 1 14.0931H17C17 14.0931 14.3333 12.3474 14.3333 6.23725Z" fill="#F54F59" stroke="#F54F59" stroke-width="1.7" stroke-linecap="round" stroke-linejoin="round"/>
<path d="M10.3678 17.5845C10.2144 17.849 9.9941 18.0686 9.72907 18.2213C9.46405 18.3739 9.16358 18.4543 8.85774 18.4543C8.5519 18.4543 8.25143 18.3739 7.98641 18.2213C7.72139 18.0686 7.50112 17.849 7.34766 17.5845" fill="#F54F59"/>
<path d="M10.3678 17.5845C10.2144 17.849 9.9941 18.0686 9.72907 18.2213C9.46405 18.3739 9.16358 18.4543 8.85774 18.4543C8.5519 18.4543 8.25143 18.3739 7.98641 18.2213C7.72139 18.0686 7.50112 17.849 7.34766 17.5845" stroke="#F54F59" stroke-width="2" stroke-linecap="round" stroke-linejoin="round"/>
</svg>
