<svg width="24" height="24" viewBox="0 0 24 24" fill="none" xmlns="http://www.w3.org/2000/svg">
<path d="M21.9748 10.3365C22.8172 10.3365 23.5 11.0193 23.5 11.8616C23.5 12.704 22.8172 13.3868 21.9748 13.3868H17.1957C15.2627 13.3868 13.6957 14.9538 13.6957 16.8868V21.8298C13.6957 22.7522 12.948 23.5 12.0255 23.5C11.1031 23.5 10.3553 22.7522 10.3553 21.8298V16.8868C10.3553 14.9538 8.78831 13.3868 6.85532 13.3868H2.02516C1.18284 13.3868 0.5 12.704 0.5 11.8616C0.5 11.0193 1.18284 10.3365 2.02516 10.3365H6.85532C8.78831 10.3365 10.3553 8.76947 10.3553 6.83648V2.17021C10.3553 1.24778 11.1031 0.5 12.0255 0.5C12.948 0.5 13.6957 1.24778 13.6957 2.17021V6.83648C13.6957 8.76948 15.2627 10.3365 17.1957 10.3365H21.9748Z" fill="#F54F59" stroke="#F54F59" stroke-linejoin="round"/>
</svg>
