<svg width="35" height="19" viewBox="0 0 35 19" fill="none" xmlns="http://www.w3.org/2000/svg">
<path d="M15.4987 13.2942L15.5175 12.7322C15.5348 12.2159 15.6023 11.7432 15.7199 11.3141C15.8455 10.8852 15.9804 10.5317 16.1248 10.2536C16.277 9.97577 16.4888 9.70015 16.76 9.42673C17.0315 9.14499 17.2529 8.93642 17.4242 8.80103C17.6034 8.66593 17.8516 8.48753 18.1687 8.26583C18.4777 8.05216 18.7056 7.88552 18.8526 7.7659C19.0077 7.63825 19.1841 7.4697 19.3817 7.26025C19.5872 7.0511 19.7337 6.82725 19.8211 6.58872C19.9088 6.34186 19.9578 6.0644 19.9682 5.75632C19.9911 5.07356 19.7915 4.51179 19.3696 4.07102C18.9476 3.63024 18.4273 3.39842 17.8087 3.37555C17.1821 3.35238 16.6238 3.54432 16.1337 3.95138C15.6515 4.35872 15.3942 4.92861 15.3617 5.66103L12.0306 5.53787C12.0695 4.61394 12.264 3.78746 12.614 3.05844C12.9723 2.32138 13.4288 1.73384 13.9834 1.29583C14.5463 0.84979 15.1649 0.518351 15.8392 0.301518C16.5218 0.0766523 17.2239 -0.0224385 17.9456 0.00424606C18.6832 0.0315171 19.3847 0.186674 20.0502 0.469717C20.7239 0.744726 21.3185 1.12936 21.834 1.62361C22.3497 2.10953 22.7539 2.72472 23.0466 3.46917C23.3395 4.20529 23.4713 5.01049 23.442 5.88476C23.4289 6.2761 23.3849 6.64128 23.31 6.98032C23.2433 7.31132 23.1378 7.61588 22.9934 7.89399C22.8573 8.16407 22.7264 8.39683 22.6007 8.59226C22.4751 8.78769 22.2974 8.99371 22.0678 9.21031C21.8385 9.41859 21.6584 9.57867 21.5276 9.69054C21.3971 9.7941 21.2014 9.94526 20.9407 10.144C20.6312 10.3744 20.3947 10.5574 20.2314 10.693C20.0759 10.829 19.895 11.0141 19.6887 11.2482C19.4905 11.4743 19.3433 11.719 19.2471 11.9822C19.1589 12.2457 19.1093 12.5398 19.0984 12.8645L19.0796 13.4266L15.4987 13.2942ZM15.2047 18.8606L15.3388 14.8639L19.11 15.0033L18.976 19L15.2047 18.8606Z" fill="#F54F59"/>
<path d="M27.4999 12.304L27.6147 11.8836C27.7202 11.4974 27.8558 11.1539 28.0214 10.8532C28.1929 10.5543 28.358 10.3142 28.5167 10.1327C28.6814 9.95311 28.8905 9.78687 29.1442 9.63402C29.3995 9.47495 29.604 9.36122 29.7575 9.29284C29.9169 9.22624 30.1362 9.14056 30.4152 9.03581C30.6866 8.9355 30.8885 8.8547 31.0208 8.79341C31.1608 8.72768 31.3241 8.63528 31.5107 8.51619C31.7033 8.39889 31.8539 8.25885 31.9626 8.09607C32.0729 7.92706 32.1596 7.72731 32.2225 7.49684C32.3621 6.98605 32.312 6.5227 32.0725 6.10678C31.8329 5.69086 31.4817 5.41324 31.0189 5.27392C30.5502 5.13282 30.0944 5.16752 29.6517 5.37803C29.2148 5.59033 28.9186 5.96967 28.7629 6.51604L26.2709 5.76585C26.4657 5.07621 26.7604 4.49082 27.1551 4.00966C27.5575 3.52407 28.0071 3.1707 28.5042 2.94956C29.0089 2.72398 29.5351 2.59588 30.0828 2.56528C30.6382 2.53023 31.1858 2.59397 31.7258 2.75651C32.2776 2.92263 32.7793 3.17814 33.2309 3.52307C33.6901 3.86355 34.07 4.27115 34.3705 4.74588C34.6728 5.21438 34.8677 5.75843 34.9553 6.37804C35.0447 6.99141 35 7.62512 34.8214 8.27917C34.7414 8.57194 34.6428 8.83887 34.5256 9.07997C34.416 9.31663 34.2818 9.52567 34.1231 9.7071C33.972 9.88408 33.8316 10.0339 33.7018 10.1566C33.5719 10.2793 33.401 10.3998 33.1889 10.5179C32.9785 10.6299 32.814 10.7152 32.6952 10.7738C32.5782 10.8262 32.4034 10.9017 32.171 11.0003C31.8962 11.113 31.685 11.2045 31.5374 11.2747C31.3958 11.3466 31.2261 11.4506 31.0285 11.5866C30.8384 11.7181 30.6835 11.8737 30.5638 12.0534C30.4501 12.2349 30.36 12.4471 30.2936 12.69L30.1788 13.1105L27.4999 12.304ZM26.2816 16.4472L27.0982 13.4572L29.9195 14.3065L29.1029 17.2965L26.2816 16.4472Z" fill="#F54F59"/>
<path d="M4.52511 12.993L4.41027 12.5725C4.30478 12.1863 4.24637 11.8197 4.23504 11.4725C4.22963 11.1236 4.24844 10.8281 4.29146 10.5859C4.34042 10.342 4.43387 10.0847 4.57182 9.81393C4.70808 9.53697 4.82404 9.32679 4.91972 9.18339C5.02133 9.0382 5.16402 8.84357 5.34778 8.59949C5.52731 8.36344 5.65771 8.18261 5.73899 8.05703C5.82451 7.92343 5.91634 7.75421 6.01451 7.54939C6.11861 7.34278 6.17565 7.14022 6.18565 6.94172C6.19394 6.73699 6.16661 6.51938 6.10366 6.28891C5.96415 5.77812 5.68784 5.41301 5.27474 5.19357C4.86164 4.97412 4.42368 4.93406 3.96088 5.07338C3.49215 5.21449 3.12316 5.49747 2.85393 5.92232C2.59064 6.34538 2.53088 6.83189 2.67467 7.38183L0.18266 8.13202C-0.00025789 7.4388 -0.0457936 6.77839 0.0460526 6.15077C0.142131 5.51514 0.345116 4.96529 0.655009 4.50124C0.969134 4.02916 1.35073 3.62779 1.79979 3.29711C2.25308 2.95841 2.7497 2.7078 3.28963 2.54526C3.84143 2.37914 4.39587 2.31673 4.95295 2.358C5.51426 2.39127 6.04217 2.52559 6.53668 2.76097C7.02949 2.99013 7.46942 3.34306 7.85647 3.81977C8.24183 4.29026 8.52382 4.85252 8.70247 5.50657C8.78243 5.79934 8.83356 6.08056 8.85585 6.35024C8.88237 6.61191 8.87412 6.86382 8.8311 7.10597C8.79231 7.34011 8.74883 7.54532 8.70066 7.72161C8.6525 7.8979 8.56831 8.09514 8.44812 8.31334C8.32622 8.52531 8.22971 8.68918 8.1586 8.80497C8.08578 8.91452 7.97571 9.07574 7.82837 9.28863C7.65225 9.53714 7.51931 9.73221 7.42957 9.87383C7.34576 10.0137 7.25435 10.1962 7.15536 10.4215C7.0606 10.6388 7.0078 10.8569 6.99698 11.0759C6.99209 11.2931 7.02282 11.5232 7.08917 11.7661L7.20402 12.1866L4.52511 12.993ZM5.58322 17.1844L4.76657 14.1944L7.58787 13.3451L8.40453 16.335L5.58322 17.1844Z" fill="#F54F59"/>
</svg>
