<svg width="28" height="19" viewBox="0 0 28 19" fill="none" xmlns="http://www.w3.org/2000/svg">
<path d="M1.85714 1H15.5714C16.4807 1 17.3528 1.42143 17.9958 2.17157C18.6388 2.92172 19 3.93913 19 5V17C19 17.2652 18.9097 17.5196 18.749 17.7071C18.5882 17.8946 18.3702 18 18.1429 18H4.42857C3.51926 18 2.64719 17.5786 2.00421 16.8284C1.36122 16.0783 1 15.0609 1 14V2C1 1.73478 1.09031 1.48043 1.25105 1.29289C1.4118 1.10536 1.62981 1 1.85714 1Z" stroke="#F57078" stroke-width="2" stroke-linecap="round" stroke-linejoin="round"/>
<mask id="path-2-outside-1_1450_5474" maskUnits="userSpaceOnUse" x="18" y="2" width="10" height="16" fill="black">
<rect fill="white" x="18" y="2" width="10" height="16"/>
<path d="M19 8L26 4V16L19 12"/>
</mask>
<path d="M26 4H28C28 3.28706 27.6205 2.62802 27.0039 2.27018C26.3872 1.91234 25.6267 1.9098 25.0077 2.26351L26 4ZM26 16L25.0077 17.7365C25.6267 18.0902 26.3872 18.0877 27.0039 17.7298C27.6205 17.372 28 16.7129 28 16H26ZM19.9923 9.73649L26.9923 5.73649L25.0077 2.26351L18.0077 6.26351L19.9923 9.73649ZM24 4V16H28V4H24ZM26.9923 14.2635L19.9923 10.2635L18.0077 13.7365L25.0077 17.7365L26.9923 14.2635Z" fill="#F57078" mask="url(#path-2-outside-1_1450_5474)"/>
</svg>
