<svg width="26" height="26" viewBox="0 0 26 26" fill="none" xmlns="http://www.w3.org/2000/svg">
<path d="M20.2122 4.85558C20.5402 5.1577 20.8509 5.46846 21.1444 5.78785L24.6793 6.29283C25.2552 7.29308 25.6992 8.36375 26 9.47809L23.8506 12.3396C23.8506 12.3396 23.8894 13.2201 23.8506 13.6604L26 16.5219C25.7006 17.6367 25.2566 18.7076 24.6793 19.7072L21.1444 20.2122C21.1444 20.2122 20.5359 20.8466 20.2122 21.1444L19.7072 24.6793C18.7069 25.2552 17.6363 25.6992 16.5219 26L13.6604 23.8506C13.221 23.8895 12.779 23.8895 12.3396 23.8506L9.47809 26C8.36328 25.7006 7.29243 25.2566 6.29283 24.6793L5.78785 21.1444C5.46846 20.8423 5.1577 20.5315 4.85558 20.2122L1.32072 19.7072C0.744758 18.7069 0.300824 17.6363 0 16.5219L2.1494 13.6604C2.1494 13.6604 2.11056 12.7799 2.1494 12.3396L0 9.47809C0.299429 8.36328 0.743437 7.29243 1.32072 6.29283L4.85558 5.78785C5.1577 5.46846 5.46846 5.1577 5.78785 4.85558L6.29283 1.32072C7.29308 0.744758 8.36375 0.300824 9.47809 0L12.3396 2.1494C12.779 2.11055 13.221 2.11055 13.6604 2.1494L16.5219 0C17.6367 0.299429 18.7076 0.743437 19.7072 1.32072L20.2122 4.85558Z" fill="#F54F59"/>
<path d="M13 18C15.7614 18 18 15.7614 18 13C18 10.2386 15.7614 8 13 8C10.2386 8 8 10.2386 8 13C8 15.7614 10.2386 18 13 18Z" fill="#FFBDC1"/>
</svg>
