<svg width="84" height="16" viewBox="0 0 84 16" fill="none" xmlns="http://www.w3.org/2000/svg">
<path d="M7.3529 0.492165C7.55658 -0.164057 8.44342 -0.164054 8.6471 0.492167L10.0692 5.07393C10.1603 5.3674 10.4215 5.5661 10.7163 5.5661H15.3183C15.9774 5.5661 16.2515 6.44904 15.7182 6.85461L11.9951 9.68629C11.7567 9.86767 11.6569 10.1892 11.748 10.4826L13.1701 15.0644C13.3737 15.7206 12.6563 16.2663 12.123 15.8607L8.39993 13.0291C8.16146 12.8477 7.83854 12.8477 7.60007 13.0291L3.87697 15.8607C3.34373 16.2663 2.62627 15.7206 2.82995 15.0644L4.25204 10.4826C4.34313 10.1892 4.24335 9.86767 4.00487 9.68629L0.281775 6.8546C-0.251464 6.44904 0.0225862 5.5661 0.681706 5.5661H5.28371C5.57847 5.5661 5.83972 5.3674 5.93081 5.07393L7.3529 0.492165Z" fill="#FF9C00"/>
<path d="M24.3529 0.492165C24.5566 -0.164057 25.4434 -0.164054 25.6471 0.492167L27.0692 5.07393C27.1603 5.3674 27.4215 5.5661 27.7163 5.5661H32.3183C32.9774 5.5661 33.2515 6.44904 32.7182 6.85461L28.9951 9.68629C28.7567 9.86767 28.6569 10.1892 28.748 10.4826L30.1701 15.0644C30.3737 15.7206 29.6563 16.2663 29.123 15.8607L25.3999 13.0291C25.1615 12.8477 24.8385 12.8477 24.6001 13.0291L20.877 15.8607C20.3437 16.2663 19.6263 15.7206 19.8299 15.0644L21.252 10.4826C21.3431 10.1892 21.2433 9.86767 21.0049 9.68629L17.2818 6.8546C16.7485 6.44904 17.0226 5.5661 17.6817 5.5661H22.2837C22.5785 5.5661 22.8397 5.3674 22.9308 5.07393L24.3529 0.492165Z" fill="#FF9C00"/>
<path d="M41.3529 0.492165C41.5566 -0.164057 42.4434 -0.164054 42.6471 0.492167L44.0692 5.07393C44.1603 5.3674 44.4215 5.5661 44.7163 5.5661H49.3183C49.9774 5.5661 50.2515 6.44904 49.7182 6.85461L45.9951 9.68629C45.7567 9.86767 45.6569 10.1892 45.748 10.4826L47.1701 15.0644C47.3737 15.7206 46.6563 16.2663 46.123 15.8607L42.3999 13.0291C42.1615 12.8477 41.8385 12.8477 41.6001 13.0291L37.877 15.8607C37.3437 16.2663 36.6263 15.7206 36.8299 15.0644L38.252 10.4826C38.3431 10.1892 38.2433 9.86767 38.0049 9.68629L34.2818 6.8546C33.7485 6.44904 34.0226 5.5661 34.6817 5.5661H39.2837C39.5785 5.5661 39.8397 5.3674 39.9308 5.07393L41.3529 0.492165Z" fill="#FF9C00"/>
<path d="M58.3529 0.492165C58.5566 -0.164057 59.4434 -0.164054 59.6471 0.492167L61.0692 5.07393C61.1603 5.3674 61.4215 5.5661 61.7163 5.5661H66.3183C66.9774 5.5661 67.2515 6.44904 66.7182 6.85461L62.9951 9.68629C62.7567 9.86767 62.6569 10.1892 62.748 10.4826L64.1701 15.0644C64.3737 15.7206 63.6563 16.2663 63.123 15.8607L59.3999 13.0291C59.1615 12.8477 58.8385 12.8477 58.6001 13.0291L54.877 15.8607C54.3437 16.2663 53.6263 15.7206 53.8299 15.0644L55.252 10.4826C55.3431 10.1892 55.2433 9.86767 55.0049 9.68629L51.2818 6.8546C50.7485 6.44904 51.0226 5.5661 51.6817 5.5661H56.2837C56.5785 5.5661 56.8397 5.3674 56.9308 5.07393L58.3529 0.492165Z" fill="#FF9C00"/>
<path d="M83.5686 7.25665C83.748 7.11661 83.8811 6.92126 83.9492 6.69798C84.0172 6.47469 84.0169 6.23468 83.9483 6.01159C83.8796 5.7885 83.746 5.59353 83.5663 5.454C83.3865 5.31447 83.1696 5.23738 82.9459 5.23356L78.6017 5.06159C78.5803 5.06005 78.5599 5.05207 78.5427 5.03861C78.5256 5.02514 78.5126 5.00678 78.5052 4.98573L77.004 0.73724C76.9286 0.521093 76.7916 0.334452 76.6116 0.202586C76.4316 0.0707203 76.2172 0 75.9976 0C75.7779 0 75.5636 0.0707203 75.3836 0.202586C75.2036 0.334452 75.0666 0.521093 74.9912 0.73724L73.4948 5.0009C73.4874 5.02195 73.4744 5.04032 73.4573 5.05378C73.4401 5.06724 73.4197 5.07522 73.3983 5.07677L69.0541 5.24873C68.8304 5.25256 68.6135 5.32964 68.4337 5.46917C68.254 5.6087 68.1204 5.80368 68.0517 6.02677C67.9831 6.24985 67.9828 6.48987 68.0508 6.71315C68.1189 6.93643 68.252 7.13178 68.4314 7.27182L71.8392 10.0789C71.8563 10.0929 71.869 10.1119 71.8759 10.1335C71.8827 10.1551 71.8834 10.1783 71.8778 10.2002L70.7049 14.5549C70.6441 14.7767 70.65 15.0127 70.7217 15.2308C70.7935 15.4489 70.9276 15.6386 71.1059 15.774C71.2842 15.9094 71.498 15.984 71.7181 15.9876C71.9383 15.9912 72.1542 15.9236 72.3364 15.7941L75.9372 13.2652C75.955 13.2524 75.976 13.2455 75.9976 13.2455C76.0191 13.2455 76.0402 13.2524 76.0579 13.2652L79.6588 15.7941C79.8386 15.928 80.0537 16 80.2742 16C80.4948 16 80.7099 15.928 80.8897 15.7941C81.068 15.66 81.2023 15.4712 81.274 15.2538C81.3457 15.0365 81.3514 14.8011 81.2903 14.5802L80.1077 10.2104C80.1014 10.1884 80.1018 10.165 80.1087 10.1433C80.1156 10.1215 80.1287 10.1026 80.1463 10.089L83.5686 7.25665ZM79.1761 10.4582L80.3587 14.8281C80.3683 14.8514 80.37 14.8775 80.3635 14.902C80.357 14.9265 80.3427 14.948 80.3229 14.9627C80.3032 14.9775 80.2792 14.9848 80.255 14.9833C80.2307 14.9818 80.2077 14.9716 80.1898 14.9545L76.5889 12.4256C76.4122 12.3003 76.2037 12.2333 75.9903 12.2334V1.01541C76.0131 1.01348 76.0357 1.02004 76.0543 1.03392C76.0728 1.04781 76.0861 1.06813 76.0917 1.09128L77.5929 5.34483C77.6656 5.55446 77.7963 5.73666 77.9682 5.86817C78.1401 5.99969 78.3456 6.07457 78.5583 6.08325L82.9025 6.25522C82.9252 6.25483 82.9474 6.26209 82.9659 6.27593C82.9844 6.28976 82.9982 6.30944 83.0052 6.33208C83.0122 6.35472 83.0121 6.37912 83.0049 6.4017C82.9977 6.42428 82.9838 6.44384 82.9652 6.45753L79.5574 9.26456C79.3868 9.40038 79.2592 9.58689 79.1912 9.79979C79.1232 10.0127 79.1179 10.2421 79.1761 10.4582Z" fill="#FF9C00"/>
</svg>
