<svg width="153" height="44" viewBox="0 0 153 44" fill="none" xmlns="http://www.w3.org/2000/svg">
<g filter="url(#filter0_d_4629_23313)">
<rect x="10" y="10" width="25.428" height="24" rx="5" fill="white"/>
</g>
<path d="M25.1834 19.1695C25.1267 18.6198 24.8832 18.1927 24.453 17.8883C24.0228 17.5839 23.439 17.4317 22.7016 17.4317C22.2005 17.4317 21.7774 17.4999 21.4323 17.6362C21.0872 17.7679 20.8225 17.9519 20.6381 18.1882C20.4585 18.4244 20.3687 18.6925 20.3687 18.9923C20.3592 19.2422 20.4136 19.4602 20.5318 19.6465C20.6547 19.8328 20.8225 19.9941 21.0352 20.1303C21.2479 20.2621 21.4938 20.3779 21.7727 20.4779C22.0516 20.5733 22.3494 20.6551 22.6661 20.7232L23.9708 21.0231C24.6043 21.1594 25.1857 21.3411 25.7152 21.5682C26.2447 21.7954 26.7032 22.0748 27.0908 22.4064C27.4785 22.7381 27.7787 23.1288 27.9914 23.5786C28.2088 24.0283 28.3199 24.544 28.3247 25.1255C28.3199 25.9796 28.093 26.7201 27.6439 27.3471C27.1996 27.9695 26.5567 28.4533 25.7152 28.7986C24.8785 29.1393 23.8692 29.3097 22.6874 29.3097C21.515 29.3097 20.4939 29.137 19.6241 28.7918C18.759 28.4465 18.083 27.9354 17.5961 27.2585C17.1139 26.577 16.861 25.7343 16.8374 24.7302H19.8085C19.8416 25.1982 19.981 25.5889 20.2268 25.9023C20.4774 26.2113 20.8107 26.4452 21.2267 26.6043C21.6474 26.7587 22.1225 26.836 22.6519 26.836C23.1719 26.836 23.6234 26.7633 24.0063 26.6179C24.3939 26.4725 24.6941 26.2703 24.9068 26.0114C25.1196 25.7524 25.2259 25.4549 25.2259 25.1187C25.2259 24.8052 25.129 24.5417 24.9352 24.3282C24.7461 24.1146 24.4672 23.9329 24.0985 23.783C23.7345 23.6331 23.2878 23.4968 22.7583 23.3741L21.177 22.9925C19.9527 22.7063 18.9859 22.2588 18.2769 21.65C17.5678 21.0412 17.2156 20.2212 17.2203 19.1899C17.2156 18.3449 17.4496 17.6067 17.9223 16.9752C18.3998 16.3437 19.0545 15.8507 19.8865 15.4964C20.7185 15.142 21.6639 14.9648 22.7228 14.9648C23.8007 14.9648 24.7414 15.142 25.545 15.4964C26.3534 15.8507 26.9821 16.3437 27.4312 16.9752C27.8803 17.6067 28.1119 18.3381 28.1261 19.1695H25.1834Z" fill="#379A89"/>
<path d="M52.9495 17.9829C52.8818 17.3314 52.5916 16.8253 52.0788 16.4646C51.566 16.1039 50.87 15.9235 49.9908 15.9235C49.3935 15.9235 48.8891 16.0043 48.4777 16.1658C48.0663 16.3219 47.7507 16.54 47.5309 16.82C47.3168 17.0999 47.2097 17.4176 47.2097 17.7729C47.1984 18.069 47.2633 18.3275 47.4041 18.5482C47.5507 18.769 47.7507 18.9601 48.0043 19.1216C48.2579 19.2778 48.551 19.415 48.8835 19.5335C49.216 19.6466 49.571 19.7435 49.9486 19.8242L51.504 20.1796C52.2591 20.3411 52.9523 20.5565 53.5835 20.8257C54.2146 21.0949 54.7613 21.426 55.2234 21.819C55.6855 22.212 56.0434 22.6751 56.297 23.2081C56.5562 23.7411 56.6886 24.3522 56.6943 25.0413C56.6886 26.0535 56.4181 26.9311 55.8828 27.6741C55.353 28.4117 54.5866 28.9851 53.5835 29.3943C52.586 29.7981 51.3828 30 49.9739 30C48.5763 30 47.3591 29.7954 46.3221 29.3862C45.2908 28.977 44.485 28.3713 43.9045 27.5691C43.3297 26.7615 43.0282 25.7628 43 24.5729H46.5419C46.5814 25.1275 46.7476 25.5905 47.0407 25.962C47.3393 26.3281 47.7366 26.6054 48.2326 26.7938C48.7341 26.9769 49.3005 27.0684 49.9317 27.0684C50.5516 27.0684 51.0898 26.9823 51.5462 26.81C52.0083 26.6377 52.3662 26.3981 52.6198 26.0912C52.8734 25.7843 53.0002 25.4317 53.0002 25.0333C53.0002 24.6618 52.8847 24.3495 52.6536 24.0964C52.4282 23.8434 52.0957 23.628 51.6561 23.4504C51.2222 23.2727 50.6896 23.1112 50.0585 22.9658L48.1734 22.5135C46.7138 22.1743 45.5613 21.644 44.716 20.9226C43.8707 20.2011 43.4508 19.2293 43.4565 18.0071C43.4508 17.0057 43.7298 16.1308 44.2933 15.3824C44.8625 14.634 45.643 14.0499 46.6349 13.6299C47.6267 13.21 48.7538 13 50.0162 13C51.3011 13 52.4226 13.21 53.3806 13.6299C54.3443 14.0499 55.0938 14.634 55.6292 15.3824C56.1645 16.1308 56.4407 16.9976 56.4576 17.9829H52.9495Z" fill="white"/>
<path d="M58.4969 16.1093V13.2261H72.7153V16.1093H67.4151V29.7658H63.7971V16.1093H58.4969Z" fill="white"/>
<path d="M85.7502 13.2261H89.4104V23.9672C89.4104 25.1732 89.1089 26.2285 88.5059 27.133C87.9086 28.0375 87.0717 28.7428 85.9953 29.2489C84.919 29.7496 83.6651 30 82.2336 30C80.7966 30 79.5399 29.7496 78.4635 29.2489C77.3871 28.7428 76.5502 28.0375 75.9529 27.133C75.3555 26.2285 75.0568 25.1732 75.0568 23.9672V13.2261H78.7171V23.6684C78.7171 24.2983 78.8608 24.8583 79.1482 25.3482C79.4412 25.8382 79.8526 26.2231 80.3824 26.5031C80.9121 26.7831 81.5292 26.923 82.2336 26.923C82.9437 26.923 83.5608 26.7831 84.0849 26.5031C84.6146 26.2231 85.0232 25.8382 85.3106 25.3482C85.6037 24.8583 85.7502 24.2983 85.7502 23.6684V13.2261Z" fill="white"/>
<path d="M91.7626 16.1093V13.2261H105.981V16.1093H100.681V29.7658H97.0627V16.1093H91.7626Z" fill="white"/>
<path d="M108.322 29.7658V13.2261H119.988V16.1093H111.983V20.0504H119.388V22.9335H111.983V26.8827H120.022V29.7658H108.322Z" fill="white"/>
<path d="M122.898 29.7658V13.2261H129.728C131.036 13.2261 132.151 13.4496 133.076 13.8964C134.006 14.3379 134.713 14.9652 135.197 15.7781C135.688 16.5857 135.933 17.536 135.933 18.629C135.933 19.7273 135.685 20.6722 135.189 21.4637C134.693 22.2497 133.975 22.8527 133.033 23.2727C132.098 23.6926 130.965 23.9026 129.635 23.9026H125.062V21.0922H129.043C129.742 21.0922 130.323 21.0006 130.785 20.8176C131.247 20.6345 131.591 20.3599 131.816 19.9938C132.047 19.6277 132.163 19.1728 132.163 18.629C132.163 18.0798 132.047 17.6168 131.816 17.2399C131.591 16.863 131.244 16.5777 130.776 16.3838C130.314 16.1846 129.731 16.085 129.027 16.085H126.558V29.7658H122.898ZM132.247 22.239L136.55 29.7658H132.509L128.3 22.239H132.247Z" fill="white"/>
<path d="M153 13.2261V29.7658H149.838L142.307 19.3558H142.18V29.7658H138.52V13.2261H141.732L149.204 23.628H149.357V13.2261H153Z" fill="white"/>
<defs>
<filter id="filter0_d_4629_23313" x="0" y="0" width="45.4282" height="44" filterUnits="userSpaceOnUse" color-interpolation-filters="sRGB">
<feFlood flood-opacity="0" result="BackgroundImageFix"/>
<feColorMatrix in="SourceAlpha" type="matrix" values="0 0 0 0 0 0 0 0 0 0 0 0 0 0 0 0 0 0 127 0" result="hardAlpha"/>
<feOffset/>
<feGaussianBlur stdDeviation="5"/>
<feComposite in2="hardAlpha" operator="out"/>
<feColorMatrix type="matrix" values="0 0 0 0 0 0 0 0 0 0 0 0 0 0 0 0 0 0 0.25 0"/>
<feBlend mode="normal" in2="BackgroundImageFix" result="effect1_dropShadow_4629_23313"/>
<feBlend mode="normal" in="SourceGraphic" in2="effect1_dropShadow_4629_23313" result="shape"/>
</filter>
</defs>
</svg>
