<svg width="22" height="21" viewBox="0 0 22 21" fill="none" xmlns="http://www.w3.org/2000/svg">
<path d="M8 8C8 7.44772 8.44771 7 9 7C9.55229 7 10 7.44772 10 8V12C10 12.5523 9.55229 13 9 13C8.44771 13 8 12.5523 8 12V8ZM12 1C12 0.447715 11.5523 0 11 0H7C6.44772 0 6 0.447715 6 1C6 1.55228 6.44772 2 7 2H11C11.5523 2 12 1.55228 12 1ZM16.03 6.39C17.3059 7.98137 18.0008 9.96032 18 12C18 16.97 14 21 9 21C6.61305 21 4.32387 20.0518 2.63604 18.364C0.948211 16.6761 0 14.3869 0 12C0 9.61305 0.948211 7.32387 2.63604 5.63604C4.32387 3.94821 6.61305 3 9 3C11.12 3 13.07 3.74 14.62 5L15.3408 4.269C15.7343 3.87003 16.3708 3.84008 16.7661 4.2373C17.1625 4.63572 17.1404 5.27961 16.743 5.67702L16.03 6.39ZM16 12C16 8.13 12.87 5 9 5C5.13 5 2 8.13 2 12C2 15.87 5.13 19 9 19C12.87 19 16 15.87 16 12ZM21 6C20.4477 6 20 6.44772 20 7V11C20 11.5523 20.4477 12 21 12C21.5523 12 22 11.5523 22 11V7C22 6.44772 21.5523 6 21 6ZM20 15C20 15.5523 20.4477 16 21 16C21.5523 16 22 15.5523 22 15C22 14.4477 21.5523 14 21 14C20.4477 14 20 14.4477 20 15Z" fill="#F54F59"/>
</svg>
